<svg width="508" height="69" viewBox="0 0 508 69" fill="none" xmlns="http://www.w3.org/2000/svg">
<path fill-rule="evenodd" clip-rule="evenodd" d="M240.982 0.174916C209.415 1.61825 148.801 14.8863 91.7856 32.8335C87.1879 34.281 81.1307 36.1889 78.3253 37.0735C40.4957 49.0026 20.1505 56.5253 5.90953 63.8504C0.3517 66.7093 -0.125786 67.0559 0.0212858 68.1241C0.236084 69.6829 1.14033 69.4421 11.4532 65.0803C22.1248 60.567 31.6898 57.2898 57.9224 49.1591C145.597 21.9843 186.548 12.0221 232.481 6.69352C241.482 5.64921 255.859 5.83107 255.859 6.98906C255.859 8.53587 246.842 13.8111 225.963 24.4781C200.278 37.6013 184.642 46.3065 183.257 48.2544C180.891 51.5826 183.493 53.9843 189.125 53.6695C192.343 53.4897 193.074 53.3535 207.828 50.1865C250.188 41.0934 277.261 36.4783 313.951 32.0956C369.826 25.421 405.427 22.9587 472.358 21.1388C496.408 20.4851 497.651 20.3938 502.09 18.9624C503.801 18.4107 505.845 17.8715 506.632 17.7639C508.477 17.5124 508.454 17.1906 506.575 16.9534C505.757 16.8499 503.876 16.3562 502.395 15.856C498.745 14.6228 496.324 14.5584 475.475 15.139C405.579 17.0851 368.802 19.5739 315.51 25.964C287.482 29.3246 274.993 31.1506 254.584 34.8721C240.632 37.416 203.805 44.8221 198.646 46.1211C195.832 46.83 208.05 40.1432 229.511 29.2299C256.658 15.4249 262.062 11.6755 262.088 6.63174C262.116 0.944096 257.182 -0.565405 240.982 0.174916Z" fill="#D5FF40"/>
</svg>
