<svg width="525" height="102" viewBox="0 0 525 102" fill="none" xmlns="http://www.w3.org/2000/svg">
<path fill-rule="evenodd" clip-rule="evenodd" d="M445.727 0.277155C430.334 0.708054 416.03 1.45795 385.871 3.41543C350.506 5.71052 335.622 7.00163 320.203 9.11074C314.591 9.8786 313.119 9.80737 307.418 8.49229C277.05 1.48569 222.43 5.82337 175.066 19.0028C126.672 32.4685 81.8575 50.9 33.9962 77.0222C17.1268 86.2294 0 98.5927 0 101.563C0 102.326 0.19061 102.216 2.3344 100.209C19.7698 83.8895 90.0858 50.9142 141.796 34.8074C185.348 21.2415 212.482 15.4885 245.964 12.7218C263.888 11.2406 292.961 11.3431 294.474 12.893C294.646 13.0692 294.621 13.1758 294.407 13.1758C292.356 13.1758 268.533 18.6309 259.33 21.2081C228.536 29.8314 206.933 39.8432 190.899 52.9231C164.867 74.1591 183.391 92.8013 225.188 87.431C255.629 83.5201 286.114 72.8321 311.768 57.0767C335.484 42.5115 341.423 26.8022 327.177 16.3191L325.288 14.9293L326.596 14.6941C331.625 13.7898 355.672 11.7759 382.239 10.034C431.623 6.79643 450.466 6.11714 485.971 6.29429C505.037 6.38949 507.265 6.34662 511.105 5.81075C513.422 5.48734 517.279 5.13052 519.676 5.01768C523.302 4.84714 523.791 4.77022 522.582 4.56092C521.783 4.42285 517.926 3.61907 514.01 2.77492C504.729 0.773938 503.607 0.61002 496.722 0.25099C490.071 -0.0957465 458.477 -0.0796681 445.727 0.277155ZM524.416 5.19545C524.626 5.28654 524.877 5.2752 524.973 5.17055C525.07 5.0659 524.898 4.9915 524.592 5.00505C524.253 5.02018 524.185 5.09489 524.416 5.19545ZM317.588 18.1505C337.064 26.5661 331.109 39.6551 300.154 56.4724C279.494 67.6966 258.561 75.3049 235.939 79.8116C193.769 88.213 170.67 77.2811 191.268 58.6714C211.455 40.4327 249.676 26.4737 303.35 17.736C311.932 16.3389 313.502 16.3846 317.588 18.1505Z" fill="#D5FF40"/>
</svg>
